<svg width="800" height="800" viewBox="0 0 800 800" xmlns="http://www.w3.org/2000/svg">
  <g fill="none" stroke="rgb(165, 140, 110)" stroke-width="2" opacity="0.12">
    <circle cx="400" cy="400" r="40"/><circle cx="400" cy="400" r="60" stroke-dasharray="6 6"/><circle cx="400" cy="400" r="80"/>
    <g id="inner"><path d="M400 320 C 440 220, 480 260, 400 120 C 320 260, 360 220, 400 320" /><path d="M400 480 C 440 580, 480 540, 400 680 C 320 540, 360 580, 400 480" /><path d="M320 400 C 220 440, 260 480, 120 400 C 260 320, 220 360, 320 400" /><path d="M480 400 C 580 440, 540 480, 680 400 C 540 320, 580 360, 480 400" /></g>
    <g transform="rotate(45 400 400)"><use href="#inner"/></g>
    <circle cx="400" cy="400" r="280" stroke-width="1.5"/><circle cx="400" cy="400" r="300" stroke-dasharray="12 18" stroke-width="4"/><circle cx="400" cy="400" r="320"/>
    <g id="outer"><path d="M400 80 C 430 40, 450 60, 400 0 C 350 60, 370 40, 400 80" /><path d="M400 720 C 430 760, 450 740, 400 800 C 350 740, 370 760, 400 720" /><path d="M80 400 C 40 430, 60 450, 0 400 C 60 350, 40 370, 80 400" /><path d="M720 400 C 760 430, 740 450, 800 400 C 740 350, 760 370, 720 400" /></g>
    <g transform="rotate(22.5 400 400)"><use href="#outer"/></g><g transform="rotate(45 400 400)"><use href="#outer"/></g><g transform="rotate(67.5 400 400)"><use href="#outer"/></g>
  </g>
</svg>
